<svg width="244" height="218" viewBox="0 0 244 218" fill="none" xmlns="http://www.w3.org/2000/svg">
<path d="M52.8596 153.964L82.9541 141.916L113.049 153.964V193.017L82.9541 205.065L52.8596 193.017V153.964Z" fill="#E6EFF2"/>
<path d="M131.914 153.964L162.008 141.916L192.103 153.964V193.017L162.008 205.065L131.914 193.017V153.964Z" fill="#113A5A"/>
<path d="M131.015 24.3416L161.11 12.2934L191.204 24.3416V63.3945L161.11 75.4428L131.015 63.3945V24.3416Z" fill="#113A5A"/>
<path d="M51.9612 24.235L82.0557 12.1867L112.15 24.235V63.2879L82.0557 75.3362L51.9612 63.2879V24.235Z" fill="#E6EFF2"/>
<path d="M11.5357 89.8141L41.6303 77.7658L71.7248 89.8141V128.867L41.6303 140.915L11.5357 128.867L11.5357 89.8141Z" fill="#E6EFF2"/>
<path d="M171.441 89.9838L201.535 77.9355L231.63 89.9838V129.037L201.535 141.085L171.441 129.037V89.9838Z" fill="#113A5A"/>
<g filter="url(#filter0_d)">
<path d="M77.9657 89.3945L41.5071 69.7893L5 89.3945L5 128.516L41.5071 148.076L77.9657 128.516V89.3945ZM70.1152 124.308L41.5071 139.616L12.8987 124.308L12.8987 108.955L12.8987 93.6021L41.5071 78.2492L70.1152 93.6021V124.308Z" fill="#E6EFF2"/>
</g>
<g filter="url(#filter1_d)">
<path d="M201.983 69.7893L165.525 89.3945V128.516L201.983 148.076L238.49 128.516V108.955V89.3945L201.983 69.7893ZM230.592 124.308L201.983 139.616L173.375 124.308V93.6021L201.983 78.2492L230.592 93.6021V124.308Z" fill="#E6EFF2"/>
</g>
<g filter="url(#filter2_d)">
<path d="M45.8608 154.184V193.305L82.4157 212.866L118.826 193.305V154.184L82.4157 134.579L45.8608 154.184ZM110.842 189.232L82.4157 204.406L53.5566 189.232V158.391L82.4157 143.038L110.938 158.391L110.842 189.232Z" fill="#E6EFF2"/>
</g>
<g filter="url(#filter3_d)">
<path d="M124.664 154.184V193.305L161.122 212.866L197.629 193.305V154.184L161.122 134.579L124.664 154.184ZM189.731 189.232L161.122 204.54L132.562 189.232V158.391L161.122 143.038L189.731 158.391V189.232Z" fill="#E6EFF2"/>
</g>
<g filter="url(#filter4_d)">
<path d="M118.826 63.7264V24.4711L82.4642 5L45.8608 24.4711V63.5922L82.4642 83.2871L118.826 63.7264ZM53.5668 28.9472L82.4642 13.4599L110.928 28.9472V59.6533L82.4642 74.8272L53.5668 59.5188V28.9472Z" fill="#E6EFF2"/>
</g>
<g filter="url(#filter5_d)">
<path d="M197.629 63.8608V24.6052L161.122 5L124.664 24.6052V63.7264L161.122 83.2871L197.629 63.8608ZM132.562 29.0814L161.122 13.7285L189.731 29.0814V59.7874L161.122 75.0958L132.562 59.7874V29.0814Z" fill="#E6EFF2"/>
</g>
<defs>
<filter id="filter0_d" x="0" y="64.7893" width="82.9657" height="88.2871" filterUnits="userSpaceOnUse" color-interpolation-filters="sRGB">
<feFlood flood-opacity="0" result="BackgroundImageFix"/>
<feColorMatrix in="SourceAlpha" type="matrix" values="0 0 0 0 0 0 0 0 0 0 0 0 0 0 0 0 0 0 127 0"/>
<feOffset/>
<feGaussianBlur stdDeviation="2.5"/>
<feColorMatrix type="matrix" values="0 0 0 0 0 0 0 0 0 0 0 0 0 0 0 0 0 0 0.25 0"/>
<feBlend mode="normal" in2="BackgroundImageFix" result="effect1_dropShadow"/>
<feBlend mode="normal" in="SourceGraphic" in2="effect1_dropShadow" result="shape"/>
</filter>
<filter id="filter1_d" x="160.525" y="64.7893" width="82.9657" height="88.2871" filterUnits="userSpaceOnUse" color-interpolation-filters="sRGB">
<feFlood flood-opacity="0" result="BackgroundImageFix"/>
<feColorMatrix in="SourceAlpha" type="matrix" values="0 0 0 0 0 0 0 0 0 0 0 0 0 0 0 0 0 0 127 0"/>
<feOffset/>
<feGaussianBlur stdDeviation="2.5"/>
<feColorMatrix type="matrix" values="0 0 0 0 0 0 0 0 0 0 0 0 0 0 0 0 0 0 0.25 0"/>
<feBlend mode="normal" in2="BackgroundImageFix" result="effect1_dropShadow"/>
<feBlend mode="normal" in="SourceGraphic" in2="effect1_dropShadow" result="shape"/>
</filter>
<filter id="filter2_d" x="40.8608" y="129.579" width="82.9657" height="88.2871" filterUnits="userSpaceOnUse" color-interpolation-filters="sRGB">
<feFlood flood-opacity="0" result="BackgroundImageFix"/>
<feColorMatrix in="SourceAlpha" type="matrix" values="0 0 0 0 0 0 0 0 0 0 0 0 0 0 0 0 0 0 127 0"/>
<feOffset/>
<feGaussianBlur stdDeviation="2.5"/>
<feColorMatrix type="matrix" values="0 0 0 0 0 0 0 0 0 0 0 0 0 0 0 0 0 0 0.25 0"/>
<feBlend mode="normal" in2="BackgroundImageFix" result="effect1_dropShadow"/>
<feBlend mode="normal" in="SourceGraphic" in2="effect1_dropShadow" result="shape"/>
</filter>
<filter id="filter3_d" x="119.664" y="129.579" width="82.9657" height="88.2871" filterUnits="userSpaceOnUse" color-interpolation-filters="sRGB">
<feFlood flood-opacity="0" result="BackgroundImageFix"/>
<feColorMatrix in="SourceAlpha" type="matrix" values="0 0 0 0 0 0 0 0 0 0 0 0 0 0 0 0 0 0 127 0"/>
<feOffset/>
<feGaussianBlur stdDeviation="2.5"/>
<feColorMatrix type="matrix" values="0 0 0 0 0 0 0 0 0 0 0 0 0 0 0 0 0 0 0.25 0"/>
<feBlend mode="normal" in2="BackgroundImageFix" result="effect1_dropShadow"/>
<feBlend mode="normal" in="SourceGraphic" in2="effect1_dropShadow" result="shape"/>
</filter>
<filter id="filter4_d" x="40.8608" y="0" width="82.9657" height="88.2871" filterUnits="userSpaceOnUse" color-interpolation-filters="sRGB">
<feFlood flood-opacity="0" result="BackgroundImageFix"/>
<feColorMatrix in="SourceAlpha" type="matrix" values="0 0 0 0 0 0 0 0 0 0 0 0 0 0 0 0 0 0 127 0"/>
<feOffset/>
<feGaussianBlur stdDeviation="2.5"/>
<feColorMatrix type="matrix" values="0 0 0 0 0 0 0 0 0 0 0 0 0 0 0 0 0 0 0.25 0"/>
<feBlend mode="normal" in2="BackgroundImageFix" result="effect1_dropShadow"/>
<feBlend mode="normal" in="SourceGraphic" in2="effect1_dropShadow" result="shape"/>
</filter>
<filter id="filter5_d" x="119.664" y="0" width="82.9657" height="88.2871" filterUnits="userSpaceOnUse" color-interpolation-filters="sRGB">
<feFlood flood-opacity="0" result="BackgroundImageFix"/>
<feColorMatrix in="SourceAlpha" type="matrix" values="0 0 0 0 0 0 0 0 0 0 0 0 0 0 0 0 0 0 127 0"/>
<feOffset/>
<feGaussianBlur stdDeviation="2.5"/>
<feColorMatrix type="matrix" values="0 0 0 0 0 0 0 0 0 0 0 0 0 0 0 0 0 0 0.25 0"/>
<feBlend mode="normal" in2="BackgroundImageFix" result="effect1_dropShadow"/>
<feBlend mode="normal" in="SourceGraphic" in2="effect1_dropShadow" result="shape"/>
</filter>
</defs>
</svg>
