<svg width="204" height="200" viewBox="0 0 204 200" fill="none" xmlns="http://www.w3.org/2000/svg">
<rect x="5" width="199" height="200" fill="#113A5A"/>
<path d="M12.3792 67.5H42.3042C50.0742 67.5 56.9342 69.075 62.8842 72.225C68.8342 75.305 73.4542 79.645 76.7442 85.245C80.0342 90.775 81.6792 97.11 81.6792 104.25C81.6792 111.39 80.0342 117.76 76.7442 123.36C73.4542 128.89 68.8342 133.23 62.8842 136.38C56.9342 139.46 50.0742 141 42.3042 141H12.3792V67.5ZM41.8842 134.28C48.3242 134.28 53.9592 133.02 58.7892 130.5C63.6192 127.91 67.3642 124.375 70.0242 119.895C72.6842 115.345 74.0142 110.13 74.0142 104.25C74.0142 98.37 72.6842 93.19 70.0242 88.71C67.3642 84.16 63.6192 80.625 58.7892 78.105C53.9592 75.515 48.3242 74.22 41.8842 74.22H20.1492V134.28H41.8842ZM197.776 67.5L172.996 141H164.806L143.281 78.315L121.651 141H113.566L88.7864 67.5H96.7664L117.976 130.71L139.921 67.5H147.166L168.796 131.025L190.321 67.5H197.776Z" fill="#E6EFF2"/>
</svg>
