<svg width="21" height="20" viewBox="0 0 21 20" fill="none" xmlns="http://www.w3.org/2000/svg">
<path d="M10.5 0C10.3798 1.78565e-05 10.2608 0.0276469 10.1498 0.0812877C10.0389 0.134928 9.93822 0.213516 9.85369 0.3125L0.684659 9.57648C0.627394 9.62541 0.580852 9.68922 0.548778 9.76278C0.516705 9.83634 0.499997 9.9176 0.5 10C0.5 10.1396 0.547889 10.2735 0.633133 10.3722C0.718377 10.4709 0.833993 10.5263 0.954545 10.5263H3.22727V18.9474C3.22727 19.5284 3.63455 20 4.13636 20H7.77273C8.27455 20 8.68182 19.5284 8.68182 18.9474V12.6316H12.3182V18.9474C12.3182 19.5284 12.7255 20 13.2273 20H16.8636C17.3655 20 17.7727 19.5284 17.7727 18.9474V10.5263H20.0455C20.166 10.5263 20.2816 10.4709 20.3669 10.3722C20.4521 10.2735 20.5 10.1396 20.5 10C20.5 9.9176 20.4833 9.83634 20.4512 9.76278C20.4191 9.68922 20.3726 9.62541 20.3153 9.57648L11.1516 0.318668C11.1499 0.316603 11.1481 0.314547 11.1463 0.3125C11.0618 0.213516 10.9611 0.134928 10.8502 0.0812877C10.7392 0.0276469 10.6202 1.78565e-05 10.5 0Z" fill="#113A5A"/>
</svg>
