<svg width="50" height="50" viewBox="0 0 50 50" fill="none" xmlns="http://www.w3.org/2000/svg">
<path d="M20.6055 4.6875L20.3613 5.95703L19.4336 10.5957C17.9443 11.1816 16.6016 12.0056 15.3809 12.9883L10.8398 11.4258L9.61914 11.0352L8.98438 12.1582L5.85938 17.5293L5.22461 18.6523L6.15234 19.4824L9.66797 22.5586C9.5398 23.3582 9.375 24.1577 9.375 25C9.375 25.8423 9.5398 26.6418 9.66797 27.4414L6.15234 30.5176L5.22461 31.3477L5.85938 32.4707L8.98438 37.8418L9.61914 38.9648L10.8398 38.5742L15.3809 37.0117C16.6016 37.9944 17.9443 38.8184 19.4336 39.4043L20.3613 44.043L20.6055 45.3125H29.3945L29.6387 44.043L30.5664 39.4043C32.0557 38.8184 33.3984 37.9944 34.6191 37.0117L39.1602 38.5742L40.3809 38.9648L41.0156 37.8418L44.1406 32.4707L44.7754 31.3477L43.8477 30.5176L40.332 27.4414C40.4602 26.6418 40.625 25.8423 40.625 25C40.625 24.1577 40.4602 23.3582 40.332 22.5586L43.8477 19.4824L44.7754 18.6523L44.1406 17.5293L41.0156 12.1582L40.3809 11.0352L39.1602 11.4258L34.6191 12.9883C33.3984 12.0056 32.0557 11.1816 30.5664 10.5957L29.6387 5.95703L29.3945 4.6875H20.6055ZM23.1445 7.8125H26.8555L27.6367 11.8652L27.832 12.793L28.7109 13.0859C30.4871 13.6414 32.0984 14.5813 33.4473 15.8203L34.1309 16.4551L35.0098 16.1621L38.9648 14.7949L40.8203 17.9688L37.6953 20.752L36.9629 21.3379L37.207 22.2656C37.4084 23.1567 37.5 24.0662 37.5 25C37.5 25.9338 37.4084 26.8433 37.207 27.7344L37.0117 28.6621L37.6953 29.248L40.8203 32.0312L38.9648 35.2051L35.0098 33.8379L34.1309 33.5449L33.4473 34.1797C32.0984 35.4187 30.4871 36.3586 28.7109 36.9141L27.832 37.207L27.6367 38.1348L26.8555 42.1875H23.1445L22.3633 38.1348L22.168 37.207L21.2891 36.9141C19.5129 36.3586 17.9016 35.4187 16.5527 34.1797L15.8691 33.5449L14.9902 33.8379L11.0352 35.2051L9.17969 32.0312L12.3047 29.248L13.0371 28.6621L12.793 27.7344C12.5916 26.8433 12.5 25.9338 12.5 25C12.5 24.0662 12.5916 23.1567 12.793 22.2656L13.0371 21.3379L12.3047 20.752L9.17969 17.9688L11.0352 14.7949L14.9902 16.1621L15.8691 16.4551L16.5527 15.8203C17.9016 14.5813 19.5129 13.6414 21.2891 13.0859L22.168 12.793L22.3633 11.8652L23.1445 7.8125ZM25 17.1875C20.7031 17.1875 17.1875 20.7031 17.1875 25C17.1875 29.2969 20.7031 32.8125 25 32.8125C29.2969 32.8125 32.8125 29.2969 32.8125 25C32.8125 20.7031 29.2969 17.1875 25 17.1875ZM25 20.3125C27.6062 20.3125 29.6875 22.3938 29.6875 25C29.6875 27.6062 27.6062 29.6875 25 29.6875C22.3938 29.6875 20.3125 27.6062 20.3125 25C20.3125 22.3938 22.3938 20.3125 25 20.3125Z" fill="#113A5A"/>
</svg>
