<svg width="21" height="20" viewBox="0 0 21 20" fill="none" xmlns="http://www.w3.org/2000/svg">
<path d="M8.91879 0C8.41712 0 7.98828 0.338594 7.89192 0.808594L7.54213 2.52344C6.68253 2.8338 5.8877 3.2674 5.18975 3.81445L3.4674 3.24805C2.99296 3.09205 2.47097 3.27936 2.21961 3.69336L0.640445 6.30664C0.390135 6.72164 0.481235 7.2485 0.859319 7.5625L2.24007 8.70898C2.16826 9.13034 2.12142 9.55928 2.12142 10C2.12142 10.4407 2.16826 10.8697 2.24007 11.291L0.859319 12.4375C0.481235 12.7515 0.390135 13.2784 0.640445 13.6934L2.21961 16.3066C2.46992 16.7216 2.99296 16.9089 3.4674 16.7539L5.18975 16.1875C5.88747 16.7342 6.68292 17.1663 7.54213 17.4766L7.89192 19.1914C7.98828 19.6614 8.41712 20 8.91879 20H12.0812C12.5829 20 13.0117 19.6614 13.1081 19.1914L13.4579 17.4766C14.3175 17.1662 15.1123 16.7326 15.8103 16.1855L17.5326 16.752C18.007 16.908 18.529 16.7216 18.7804 16.3066L20.3596 13.6914C20.6099 13.2764 20.5188 12.7515 20.1407 12.4375L18.7599 11.291C18.8317 10.8697 18.8786 10.4407 18.8786 10C18.8786 9.55928 18.8317 9.13034 18.7599 8.70898L20.1407 7.5625C20.5188 7.2485 20.6099 6.72164 20.3596 6.30664L18.7804 3.69336C18.5301 3.27836 18.007 3.09109 17.5326 3.24609L15.8103 3.8125C15.1125 3.26579 14.3171 2.83366 13.4579 2.52344L13.1081 0.808594C13.0117 0.338594 12.5829 0 12.0812 0H8.91879ZM10.5 6C12.8135 6 14.6893 7.791 14.6893 10C14.6893 12.209 12.8135 14 10.5 14C8.18647 14 6.31071 12.209 6.31071 10C6.31071 7.791 8.18647 6 10.5 6Z" fill="#113A5A" fill-opacity="0.4"/>
</svg>
