<svg width="21" height="20" viewBox="0 0 21 20" fill="none" xmlns="http://www.w3.org/2000/svg">
<path d="M0.499999 17.7778L0.5 2.22222C0.5 0.996667 1.49667 4.35657e-08 2.72222 9.71364e-08L18.2778 7.77091e-07C19.5033 8.30662e-07 20.5 0.996668 20.5 2.22222L20.5 17.7778C20.5 19.0033 19.5033 20 18.2778 20L2.72222 20C1.49667 20 0.499999 19.0033 0.499999 17.7778ZM16.0556 15.5556L16.0556 4.44445C16.0556 3.83111 15.5578 3.33333 14.9444 3.33333C14.3311 3.33333 13.8333 3.83111 13.8333 4.44445L13.8333 15.5556C13.8333 16.1689 14.3311 16.6667 14.9444 16.6667C15.5578 16.6667 16.0556 16.1689 16.0556 15.5556ZM11.6111 15.5556L11.6111 8.96825C11.6111 8.35492 11.1133 7.85714 10.5 7.85714C9.88667 7.85714 9.38889 8.35492 9.38889 8.96825L9.38889 15.5556C9.38889 16.1689 9.88667 16.6667 10.5 16.6667C11.1133 16.6667 11.6111 16.1689 11.6111 15.5556ZM7.16667 15.5556L7.16667 13.3333C7.16667 12.72 6.66889 12.2222 6.05556 12.2222C5.44222 12.2222 4.94444 12.72 4.94444 13.3333L4.94444 15.5556C4.94444 16.1689 5.44222 16.6667 6.05556 16.6667C6.66889 16.6667 7.16667 16.1689 7.16667 15.5556Z" fill="#113A5A" fill-opacity="0.4"/>
</svg>
