<svg width="261" height="251" viewBox="0 0 261 251" fill="none" xmlns="http://www.w3.org/2000/svg">
<path d="M54 179.5L87.5 165L121 179.5V226.5L87.5 241L54 226.5V179.5Z" fill="#0075FF"/>
<path d="M142 179.5L175.5 165L209 179.5V226.5L175.5 241L142 226.5V179.5Z" fill="#0075FF"/>
<path d="M141 23.5L174.5 9L208 23.5V70.5L174.5 85L141 70.5V23.5Z" fill="#0075FF"/>
<path d="M186 102.5L219.5 88L253 102.5V149.5L219.5 164L186 149.5V102.5Z" fill="#0075FF"/>
<path d="M81.9471 101.791L41.3629 78.196L0.72467 101.791V148.873L41.3629 172.414L81.9471 148.873V101.791ZM73.2082 143.809L41.3629 162.233L9.51717 143.809V125.332V106.855L41.3629 88.3774L73.2082 106.855V143.809Z" fill="#113A5A"/>
<path d="M219.999 78.196L179.414 101.791V148.873L219.999 172.414L260.637 148.873V125.332V101.791L219.999 78.196ZM251.845 143.809L219.999 162.233L188.153 143.809V106.855L219.999 88.3774L251.845 106.855V143.809Z" fill="#113A5A"/>
<path d="M46.2093 179.764V226.847L86.9007 250.388L127.432 226.847V179.764L86.9007 156.17L46.2093 179.764ZM118.544 221.945L86.9007 240.206L54.776 221.945V184.828L86.9007 166.351L118.651 184.828L118.544 221.945Z" fill="#113A5A"/>
<path d="M133.93 179.764V226.847L174.514 250.388L215.152 226.847V179.764L174.514 156.17L133.93 179.764ZM206.359 221.945L174.514 240.368L142.722 221.945V184.828L174.514 166.351L206.359 184.828V221.945Z" fill="#113A5A"/>
<path d="M127.432 70.8993V23.6558L86.9547 0.222473L46.2093 23.6558V70.7379L86.9547 94.4405L127.432 70.8993ZM54.7873 29.0428L86.9547 10.4039L118.64 29.0428V65.9974L86.9547 84.2591L54.7873 65.8356V29.0428Z" fill="#113A5A"/>
<path d="M215.152 71.0611V23.8173L174.514 0.222473L133.93 23.8173V70.8993L174.514 94.4405L215.152 71.0611ZM142.722 29.2043L174.514 10.7271L206.359 29.2043V66.1589L174.514 84.5824L142.722 66.1589V29.2043Z" fill="#113A5A"/>
</svg>
